<mxfile host="app.diagrams.net" modified="2020-11-08T19:42:51.492Z" agent="5.0 (Windows NT 10.0; Win64; x64) AppleWebKit/537.36 (KHTML, like Gecko) Chrome/86.0.4240.183 Safari/537.36" etag="40Bl5yNhrAnGC472hteN" version="13.9.2" type="github">
  <diagram id="FtN7PqR9nEo5bdRRQCe8" name="Page-1">
    <mxGraphModel dx="782" dy="412" grid="1" gridSize="10" guides="1" tooltips="1" connect="1" arrows="1" fold="1" page="1" pageScale="1" pageWidth="850" pageHeight="1100" math="0" shadow="0">
      <root>
        <mxCell id="0" />
        <mxCell id="1" parent="0" />
        <mxCell id="OwbH7k2fsq3v4A4bfwhK-1" value="Input Voice" style="rounded=0;whiteSpace=wrap;html=1;" parent="1" vertex="1">
          <mxGeometry x="20" y="160" width="120" height="60" as="geometry" />
        </mxCell>
        <mxCell id="OwbH7k2fsq3v4A4bfwhK-2" value="" style="endArrow=classic;html=1;exitX=1;exitY=0.5;exitDx=0;exitDy=0;entryX=0;entryY=0.5;entryDx=0;entryDy=0;" parent="1" source="OwbH7k2fsq3v4A4bfwhK-1" target="OwbH7k2fsq3v4A4bfwhK-3" edge="1">
          <mxGeometry width="50" height="50" relative="1" as="geometry">
            <mxPoint x="380" y="240" as="sourcePoint" />
            <mxPoint x="387" y="130" as="targetPoint" />
          </mxGeometry>
        </mxCell>
        <mxCell id="OwbH7k2fsq3v4A4bfwhK-3" value="Convert to Wav Signal" style="rounded=0;whiteSpace=wrap;html=1;" parent="1" vertex="1">
          <mxGeometry x="180" y="160" width="120" height="60" as="geometry" />
        </mxCell>
        <mxCell id="OwbH7k2fsq3v4A4bfwhK-4" value="" style="endArrow=classic;html=1;entryX=0;entryY=0.5;entryDx=0;entryDy=0;" parent="1" target="OwbH7k2fsq3v4A4bfwhK-5" edge="1">
          <mxGeometry width="50" height="50" relative="1" as="geometry">
            <mxPoint x="300" y="190" as="sourcePoint" />
            <mxPoint x="537" y="130" as="targetPoint" />
          </mxGeometry>
        </mxCell>
        <mxCell id="OwbH7k2fsq3v4A4bfwhK-5" value="Extract MFCC Feature" style="rounded=0;whiteSpace=wrap;html=1;" parent="1" vertex="1">
          <mxGeometry x="330" y="160" width="120" height="60" as="geometry" />
        </mxCell>
        <mxCell id="OwbH7k2fsq3v4A4bfwhK-6" value="" style="endArrow=classic;html=1;entryX=0;entryY=0.5;entryDx=0;entryDy=0;" parent="1" target="OwbH7k2fsq3v4A4bfwhK-7" edge="1">
          <mxGeometry width="50" height="50" relative="1" as="geometry">
            <mxPoint x="450" y="190" as="sourcePoint" />
            <mxPoint x="687" y="130" as="targetPoint" />
          </mxGeometry>
        </mxCell>
        <mxCell id="OwbH7k2fsq3v4A4bfwhK-7" value="Preprocess the Features&amp;nbsp;" style="rounded=0;whiteSpace=wrap;html=1;" parent="1" vertex="1">
          <mxGeometry x="480" y="160" width="120" height="60" as="geometry" />
        </mxCell>
        <mxCell id="OwbH7k2fsq3v4A4bfwhK-8" value="" style="endArrow=classic;html=1;entryX=0;entryY=0.5;entryDx=0;entryDy=0;" parent="1" target="OwbH7k2fsq3v4A4bfwhK-9" edge="1">
          <mxGeometry width="50" height="50" relative="1" as="geometry">
            <mxPoint x="600" y="190" as="sourcePoint" />
            <mxPoint x="837" y="130" as="targetPoint" />
          </mxGeometry>
        </mxCell>
        <mxCell id="OwbH7k2fsq3v4A4bfwhK-9" value="Apply SVM on the Features to Test the training Model" style="rounded=0;whiteSpace=wrap;html=1;" parent="1" vertex="1">
          <mxGeometry x="630" y="160" width="120" height="60" as="geometry" />
        </mxCell>
      </root>
    </mxGraphModel>
  </diagram>
</mxfile>
